<?xml version="1.0" encoding="UTF-8"?>
<svg xmlns="http://www.w3.org/2000/svg" xmlns:xlink="http://www.w3.org/1999/xlink" width="48pt" height="48pt" viewBox="0 0 48 48" version="1.1">
<g id="surface99862">
<path style=" stroke:none;fill-rule:nonzero;fill:rgb(56.862745%,79.215686%,95.294118%);fill-opacity:1;" d="M 7 34.199219 C 7 35.199219 7.800781 36 8.800781 36 L 19.101562 36 C 20.101562 36 20.898438 35.199219 20.898438 34.199219 L 20.898438 23.800781 C 20.898438 22.800781 20.101562 22 19.101562 22 L 13 22 C 13 19.199219 15.199219 17 18 17 L 18 11 C 11.898438 11 7 15.898438 7 22 C 7 22.398438 7 22.898438 7.101562 23.300781 C 7 23.5 7 23.699219 7 23.800781 Z M 28.800781 36 L 39.101562 36 C 40.101562 36 40.898438 35.199219 40.898438 34.199219 L 40.898438 23.800781 C 40.898438 22.800781 40.101562 22 39.101562 22 L 33 22 C 33 19.199219 35.199219 17 38 17 L 38 11 C 31.898438 11 27 15.898438 27 22 C 27 22.398438 27 22.898438 27.101562 23.300781 C 27 23.5 27 23.699219 27 23.800781 L 27 34.101562 C 27 35.199219 27.800781 36 28.800781 36 Z M 28.800781 36 "/>
</g>
</svg>
